<svg width="41" height="40" viewBox="0 0 41 40" fill="none" xmlns="http://www.w3.org/2000/svg">
<g filter="url(#filter0_d)">
<path d="M36.1889 0H4.73828V32H36.1889V0Z" fill="white"/>
<g clip-path="url(#clip0)">
<path d="M20.139 12.6816C18.0238 12.6816 16.3177 14.3849 16.3177 16.4966C16.3177 18.6083 18.0238 20.3117 20.139 20.3117C22.2541 20.3117 23.9602 18.6083 23.9602 16.4966C23.9602 14.3849 22.2541 12.6816 20.139 12.6816ZM20.139 18.9769C18.7721 18.9769 17.6547 17.8646 17.6547 16.4966C17.6547 15.1287 18.7688 14.0164 20.139 14.0164C21.5092 14.0164 22.6233 15.1287 22.6233 16.4966C22.6233 17.8646 21.5058 18.9769 20.139 18.9769ZM25.0078 12.5255C25.0078 13.0203 24.6087 13.4154 24.1165 13.4154C23.621 13.4154 23.2252 13.0169 23.2252 12.5255C23.2252 12.0341 23.6243 11.6357 24.1165 11.6357C24.6087 11.6357 25.0078 12.0341 25.0078 12.5255ZM27.5386 13.4287C27.4821 12.2367 27.2094 11.1808 26.3347 10.3109C25.4634 9.44097 24.4058 9.1687 23.2119 9.10894C21.9814 9.03921 18.2932 9.03921 17.0627 9.10894C15.8721 9.16538 14.8145 9.43765 13.9399 10.3076C13.0652 11.1775 12.7958 12.2333 12.736 13.4253C12.6661 14.6539 12.6661 18.3361 12.736 19.5646C12.7925 20.7566 13.0652 21.8124 13.9399 22.6824C14.8145 23.5523 15.8688 23.8246 17.0627 23.8843C18.2932 23.9541 21.9814 23.9541 23.2119 23.8843C24.4058 23.8279 25.4634 23.5556 26.3347 22.6824C27.2061 21.8124 27.4788 20.7566 27.5386 19.5646C27.6085 18.3361 27.6085 14.6572 27.5386 13.4287ZM25.949 20.8828C25.6895 21.5335 25.1874 22.0349 24.5322 22.2972C23.5511 22.6857 21.2231 22.596 20.139 22.596C19.0548 22.596 16.7235 22.6824 15.7457 22.2972C15.0939 22.0382 14.5917 21.5369 14.329 20.8828C13.9399 19.9033 14.0297 17.5791 14.0297 16.4966C14.0297 15.4142 13.9432 13.0867 14.329 12.1105C14.5884 11.4597 15.0906 10.9583 15.7457 10.696C16.7268 10.3076 19.0548 10.3972 20.139 10.3972C21.2231 10.3972 23.5545 10.3109 24.5322 10.696C25.184 10.955 25.6862 11.4564 25.949 12.1105C26.3381 13.09 26.2483 15.4142 26.2483 16.4966C26.2483 17.5791 26.3381 19.9066 25.949 20.8828Z" fill="black"/>
</g>
</g>
<defs>
<filter id="filter0_d" x="0.738281" y="0" width="39.4506" height="40" filterUnits="userSpaceOnUse" color-interpolation-filters="sRGB">
<feFlood flood-opacity="0" result="BackgroundImageFix"/>
<feColorMatrix in="SourceAlpha" type="matrix" values="0 0 0 0 0 0 0 0 0 0 0 0 0 0 0 0 0 0 127 0"/>
<feOffset dy="4"/>
<feGaussianBlur stdDeviation="2"/>
<feColorMatrix type="matrix" values="0 0 0 0 0 0 0 0 0 0 0 0 0 0 0 0 0 0 0.25 0"/>
<feBlend mode="normal" in2="BackgroundImageFix" result="effect1_dropShadow"/>
<feBlend mode="normal" in="SourceGraphic" in2="effect1_dropShadow" result="shape"/>
</filter>
<clipPath id="clip0">
<rect width="14.8991" height="17" fill="white" transform="translate(12.6855 8)"/>
</clipPath>
</defs>
</svg>
